<svg xmlns="http://www.w3.org/2000/svg" viewBox="0 0 512 512" width="512" height="512" role="img" aria-label="MotorJury">
  <defs>
    <linearGradient id="bg" x1="0" y1="0" x2="0.35" y2="1">
      <stop offset="0" stop-color="#122A4E"/><stop offset="1" stop-color="#071426"/>
    </linearGradient>
    <linearGradient id="gold" x1="0.1" y1="0" x2="0.9" y2="1">
      <stop offset="0" stop-color="#FFD166"/><stop offset="1" stop-color="#D6961E"/>
    </linearGradient>
  </defs>
  <rect width="512" height="512" rx="112" fill="url(#bg)"/>
  <!-- the car is the mark: a big side profile with two heavy wheels reads as "car" at 16 px -->
  <path d="M40 300h84l58-92c10-16 27-26 46-26h96c20 0 39 10 50 27l58 91h40c22 0 40 18 40 40v52H40c-22 0-40-18-40-40v-12c0-22 18-40 40-40z" fill="#F4F7FB"/>
  <path d="M160 300l44-70c5-8 14-13 24-13h30v83zm120 0v-83h28c11 0 21 5 27 15l42 68z" fill="#122A4E"/>
  <circle cx="140" cy="392" r="62" fill="#071426"/><circle cx="140" cy="392" r="26" fill="#FFB02E"/>
  <circle cx="372" cy="392" r="62" fill="#071426"/><circle cx="372" cy="392" r="26" fill="#FFB02E"/>
  <!-- the jury: a gold gavel about to strike, small enough to stay an accent -->
  <g transform="rotate(-35 400 112)">
    <rect x="322" y="86" width="156" height="58" rx="24" fill="url(#gold)"/>
    <rect x="380" y="140" width="40" height="70" rx="18" fill="url(#gold)"/>
  </g>
</svg>
